<svg width="50" height="68" viewBox="0 0 50 68" xmlns="http://www.w3.org/2000/svg"><title>Page 1</title><g fill="#333" fill-rule="evenodd"><path d="M0 68h49.148V.3H0V68zM1.3 1.602H47L32.336 16.856H1.3V1.602zm46.547.997v47.45H2.22L47.847 2.6zM1.3 18.15h29.784L1.3 49.132v-30.98zm23.924 33.2h22.622V66.7H25.224V51.356zm-23.923 0h22.63V66.7H1.3V51.356z"/><path d="M14.91 9.112v-2.48h2.21c.76 0 1.178.613 1.178 1.286 0 .674-.41 1.194-1.22 1.194H14.91zm4.647-1.22c0-1.358-.91-2.406-2.422-2.406h-3.44v7.528h1.215v-2.74h1.69l1.806 2.74h1.358l-1.835-2.802c.98-.268 1.62-1.282 1.62-2.32zM10.79 56.36H13c.762 0 1.18.61 1.18 1.283 0 .675-.412 1.195-1.22 1.195h-2.17v-2.48zm0 3.64h1.69l1.807 2.74h1.357l-1.834-2.803c.982-.267 1.628-1.28 1.628-2.32 0-1.358-.91-2.406-2.422-2.406h-3.44v7.53h1.215V60zm25.145-28.584v6.38h1.213v-6.38h2.62V30.27h-6.46v1.146h2.627z"/></g></svg>